<svg id="Capa_1" data-name="Capa 1" height="100px" width="100px" xmlns="http://www.w3.org/2000/svg" viewBox="0 0 100 100"><defs><style>.cls-1{fill:#fff;}.cls-2{fill:#211915;}</style></defs><title>iconoinicio</title><path class="cls-1" d="M77.87,39.8l-.08,8a2.53,2.53,0,0,1-1.17,2.07,4.44,4.44,0,0,1-2.74.81,4.53,4.53,0,0,1-2.8-.92,2.54,2.54,0,0,1-1.16-2.08l0-2.14-7.87-.12-.16,16.47H54l.16-16.59-5.89-.09,0-1.18a6.42,6.42,0,0,0,5-2.58A4.64,4.64,0,0,0,54.25,40c.09-.19.18-.39.26-.59l9.5.14a6.87,6.87,0,0,0,6.12,4.48,6.58,6.58,0,0,0,5.46-3.23.43.43,0,0,1,0-.07,7.82,7.82,0,0,0,.54-1Z"/><path class="cls-1" d="M75.62,39.77h.48a7,7,0,0,1-.47,1,.43.43,0,0,0,0,.07,2.44,2.44,0,0,1-1.76,1.29A6.38,6.38,0,0,0,75,40.88a3.27,3.27,0,0,0,.25-.36A6.86,6.86,0,0,0,75.62,39.77Z"/><path class="cls-1" d="M76.5,35.9a8.77,8.77,0,0,1-.88,3.87h-.06a10.22,10.22,0,0,0,.63-3.69c0-2.78-.93-5.08-2.13-5.49a5.9,5.9,0,0,0-.57-.55l.19,0a1.66,1.66,0,0,1,.66.14A8.37,8.37,0,0,1,76.5,35.9Z"/><path class="cls-1" d="M75.07,39.76h.49a5.24,5.24,0,0,1-.36.75,3.27,3.27,0,0,1-.25.36,1.65,1.65,0,0,1-1.27.76h-.05A7,7,0,0,0,75.07,39.76Z"/><path class="cls-1" d="M73.63,41.64a6.4,6.4,0,0,1-.5.41,3.59,3.59,0,0,1-1.9-2.35h.54C72.23,40.87,72.89,41.61,73.63,41.64Z"/><path class="cls-1" d="M76,35.9a8.37,8.37,0,0,1-.93,3.86H75a9.36,9.36,0,0,0,.68-3.68c0-2.89-1.06-5.06-2-5.06s-2,2.17-2,5.06a9.47,9.47,0,0,0,.66,3.64h-.55a10.2,10.2,0,0,1-.61-3.63c0-3.07,1.13-5.56,2.52-5.56a1.27,1.27,0,0,1,.38.07A7.9,7.9,0,0,1,76,35.9Z"/><polygon class="cls-2" points="89.93 18.42 89.93 62.93 61.9 62.93 61.9 62.43 89.43 62.43 89.43 18.92 10.57 18.92 10.57 62.43 54.03 62.43 54.03 62.93 10.07 62.93 10.07 18.42 89.93 18.42"/><polygon class="cls-1" points="89.43 18.92 89.43 62.43 61.9 62.43 61.91 61.93 88.93 61.93 88.93 19.42 37.76 19.42 11.07 19.42 11.07 61.93 54.04 61.93 54.03 62.43 10.57 62.43 10.57 18.92 89.43 18.92"/><path class="cls-2" d="M88.93,19.42V61.93h-27l.16-16.47,7.87.12,0,2.14a2.54,2.54,0,0,0,1.16,2.08,4.53,4.53,0,0,0,2.8.92,4.44,4.44,0,0,0,2.74-.81,2.53,2.53,0,0,0,1.17-2.07l.08-8-1.7,0A9.33,9.33,0,0,0,77,35.9c0-4.5-3.08-8.17-6.87-8.17s-6.87,3.67-6.87,8.17A9.28,9.28,0,0,0,64,39.59l-9.5-.14a9.4,9.4,0,0,0,.69-3.55c0-4.5-3.08-8.17-6.87-8.17a5.91,5.91,0,0,0-2.36.5l-1-2.59,1.15-4.59c-.42-.1-1-.2-1.61-.3s-1.36-.2-2.12-.28-1.55-.15-2.35-.19-1.57-.07-2.3-.07v-.79Zm-3,42.1v-2.1H76.68v2l9.1.05Z"/><path class="cls-1" d="M85.91,59.42v2.1h-.13l-9.1-.05v-2Zm-.13,2V59.55h-9v1.8Z"/><path class="cls-2" d="M85.78,59.55v1.84l-9,0v-1.8Zm-.12,1.72v-1.6H76.93v1.55Z"/><path class="cls-1" d="M85.66,59.67v1.6l-8.73-.05V59.67ZM85.57,61h0a0,0,0,0,0,0,0h-.17s0,0,0,0,0,0,0,0l.14.14h-.12s0,0,0,0l0,0,0,0,0,0h.13a0,0,0,0,0,0,0v0L85.42,61h.15Zm-.3.13V61h0v.17h-.07v0a0,0,0,0,0,0,0h0v0a0,0,0,0,0,0,0l.05,0h0a.05.05,0,0,0,0,0S85.27,61.14,85.27,61.13Z"/><path class="cls-2" d="M85.57,61h-.15l.14.13v0a0,0,0,0,1,0,0h-.13l0,0,0,0,0,0s0,0,0,0h.12L85.39,61s0,0,0,0,0,0,0,0h.17A0,0,0,0,1,85.57,61Z"/><path class="cls-2" d="M85.27,61v.17s0,0,0,0a.05.05,0,0,1,0,0h0l-.05,0a0,0,0,0,1,0,0v0h0a0,0,0,0,1,0,0v0h.07V61h0Z"/><path class="cls-1" d="M77,35.9a9.33,9.33,0,0,1-.83,3.88H76.1a10.91,10.91,0,0,0,.59-3.7c0-3-1-5.35-2.35-5.92a5.76,5.76,0,0,0-4.21-1.93c-3.52,0-6.37,3.44-6.37,7.67a9,9,0,0,0,.79,3.7H64a9.28,9.28,0,0,1-.75-3.69c0-4.5,3.08-8.17,6.87-8.17S77,31.4,77,35.9Z"/><path class="cls-2" d="M76.69,36.08a10.91,10.91,0,0,1-.59,3.7h-.48a8.77,8.77,0,0,0,.88-3.87,8.37,8.37,0,0,0-2.16-5.74C75.72,30.73,76.69,33.09,76.69,36.08Z"/><path class="cls-2" d="M76.1,39.78h.07a7.82,7.82,0,0,1-.54,1A7,7,0,0,0,76.1,39.78Z"/><path class="cls-2" d="M74.06,30.59c1.2.41,2.13,2.71,2.13,5.49a10.22,10.22,0,0,1-.63,3.69h-.49A8.37,8.37,0,0,0,76,35.9,7.9,7.9,0,0,0,74.06,30.59Z"/><path class="cls-2" d="M75.56,39.77h.06a6.86,6.86,0,0,1-.42.75A5.24,5.24,0,0,0,75.56,39.77Z"/><path class="cls-2" d="M73.68,31c.95,0,2,2.17,2,5.06A9.36,9.36,0,0,1,75,39.76l-2.69,0a9.47,9.47,0,0,1-.66-3.64C71.66,33.19,72.73,31,73.68,31Z"/><path class="cls-2" d="M75,39.76h.06a7,7,0,0,1-1.44,1.88c-.74,0-1.4-.77-1.86-1.93h.55c.39.89.89,1.43,1.36,1.43S74.63,40.62,75,39.76Z"/><path class="cls-2" d="M75,40.88a6.38,6.38,0,0,1-1.12,1.25l-.15,0a1.72,1.72,0,0,1-.55-.1,6.4,6.4,0,0,0,.5-.41h.05A1.65,1.65,0,0,0,75,40.88Z"/><path class="cls-2" d="M73.83,42.13a2.44,2.44,0,0,0,1.76-1.29,6.58,6.58,0,0,1-5.46,3.23A6.87,6.87,0,0,1,64,39.59h.54a6.31,6.31,0,0,0,5.58,4A5.64,5.64,0,0,0,73.83,42.13Z"/><path class="cls-2" d="M74.34,30.16a1.66,1.66,0,0,0-.66-.14l-.19,0a5.13,5.13,0,0,0-3.36-1.31c-3.24,0-5.87,3.22-5.87,7.17a8.31,8.31,0,0,0,.86,3.71h-.57a9,9,0,0,1-.79-3.7c0-4.23,2.85-7.67,6.37-7.67A5.76,5.76,0,0,1,74.34,30.16Z"/><path class="cls-2" d="M74.06,30.59a1.27,1.27,0,0,0-.38-.07c-1.39,0-2.52,2.49-2.52,5.56a10.2,10.2,0,0,0,.61,3.63h-.54a10.83,10.83,0,0,1-.57-3.62c0-3.33,1.21-5.86,2.83-6A5.9,5.9,0,0,1,74.06,30.59Z"/><path class="cls-1" d="M73.68,42.15l.15,0a5.64,5.64,0,0,1-3.7,1.44,6.31,6.31,0,0,1-5.58-4h.57a5.75,5.75,0,0,0,5,3.46,5.07,5.07,0,0,0,3-1A1.72,1.72,0,0,0,73.68,42.15Z"/><path class="cls-1" d="M73.49,30c-1.62.18-2.83,2.71-2.83,6a10.83,10.83,0,0,0,.57,3.62l-6.11-.09a8.31,8.31,0,0,1-.86-3.71c0-3.95,2.63-7.17,5.87-7.17A5.13,5.13,0,0,1,73.49,30Z"/><path class="cls-2" d="M71.23,39.7a3.59,3.59,0,0,0,1.9,2.35,5.07,5.07,0,0,1-3,1,5.75,5.75,0,0,1-5-3.46Z"/><polygon class="cls-2" points="61.91 61.93 61.9 62.43 54.03 62.43 54.04 61.93 61.91 61.93"/><rect class="cls-1" x="54.03" y="62.43" width="7.87" height="0.5"/><path class="cls-2" d="M61.9,62.93l-.2,20.23a2.54,2.54,0,0,1-1.18,2.07,4.42,4.42,0,0,1-2.74.82,4.7,4.7,0,0,1-2.82-.9A2.6,2.6,0,0,1,53.82,83L54,62.93Z"/><path class="cls-2" d="M54.94,36.08a11,11,0,0,1-.48,3.37H54a8.88,8.88,0,0,0,.72-3.54,8.35,8.35,0,0,0-2.18-5.77C53.93,30.65,54.94,33,54.94,36.08Z"/><path class="cls-1" d="M54.46,39.45a11,11,0,0,0,.48-3.37c0-3-1-5.43-2.42-5.95a5.76,5.76,0,0,0-4.19-1.9c-3.51,0-6.37,3.44-6.37,7.67a8.84,8.84,0,0,0,.66,3.37h-.54a9.46,9.46,0,0,1-.62-3.36A8.25,8.25,0,0,1,46,28.23a5.91,5.91,0,0,1,2.36-.5c3.79,0,6.87,3.67,6.87,8.17a9.4,9.4,0,0,1-.69,3.55Z"/><path class="cls-2" d="M54.51,39.45c-.08.2-.17.4-.26.59a5.89,5.89,0,0,0,.21-.59Z"/><path class="cls-1" d="M54.46,39.45a5.89,5.89,0,0,1-.21.59,8.29,8.29,0,0,1-.92,1.45,2,2,0,0,1-1.3.65,7.92,7.92,0,0,0,1-1A3.93,3.93,0,0,0,53.72,40c.09-.18.18-.35.26-.54Z"/><path class="cls-2" d="M54.2,45.34,54,61.93h-43V19.42H37.76v.79a18.93,18.93,0,0,0-3.61.35,15.92,15.92,0,0,0-3.63,1.14,15.51,15.51,0,0,0-3.37,2.05,13.37,13.37,0,0,0-2.81,3.07A15.23,15.23,0,0,0,22.43,31a19.37,19.37,0,0,0-.7,5.45,30.5,30.5,0,0,0,.72,6.89,14.9,14.9,0,0,0,2.3,5.32,10.63,10.63,0,0,0,4.1,3.43A13.94,13.94,0,0,0,35,53.35a26.1,26.1,0,0,0,2.86-.16,29,29,0,0,0,2.94-.45c1-.2,1.92-.45,2.85-.74a19.36,19.36,0,0,0,2.57-1V48.3l-.17.06a2.33,2.33,0,0,0,.27-1.07l0-2.07,2,0Z"/><path class="cls-2" d="M54.44,36.08a10.51,10.51,0,0,1-.51,3.36h-.5a8.27,8.27,0,0,0,.77-3.53,7.9,7.9,0,0,0-2-5.33C53.48,30.91,54.44,33.25,54.44,36.08Z"/><path class="cls-2" d="M53.93,39.44h0c-.08.19-.17.36-.26.54C53.8,39.81,53.86,39.63,53.93,39.44Z"/><path class="cls-1" d="M53.43,39.43h.5c-.07.19-.13.37-.21.54A7.74,7.74,0,0,1,53,41.11a1.51,1.51,0,0,1-1.07.53h-.09a6.35,6.35,0,0,0,.78-.85,3.34,3.34,0,0,0,.51-.76A5.43,5.43,0,0,0,53.43,39.43Z"/><path class="cls-2" d="M53.33,41.49A8.29,8.29,0,0,0,54.25,40,4.64,4.64,0,0,1,53.33,41.49Z"/><path class="cls-1" d="M54.2,35.9a8.27,8.27,0,0,1-.77,3.53h0a9.69,9.69,0,0,0,.55-3.35c0-2.89-1.06-5.06-2-5.06s-2,2.17-2,5.06a9.79,9.79,0,0,0,.54,3.31h-.54a10.51,10.51,0,0,1-.5-3.3c0-3.07,1.13-5.56,2.52-5.56a1.12,1.12,0,0,1,.31.05A7.9,7.9,0,0,1,54.2,35.9Z"/><path class="cls-2" d="M53.94,36.08a9.69,9.69,0,0,1-.55,3.35l-2.94,0a9.79,9.79,0,0,1-.54-3.31c0-2.89,1.07-5.06,2-5.06S53.94,33.19,53.94,36.08Z"/><path class="cls-2" d="M53.39,39.43h0a5.43,5.43,0,0,1-.3.59A5.48,5.48,0,0,0,53.39,39.43Z"/><path class="cls-2" d="M53,41.11A7.74,7.74,0,0,0,53.72,40,3.93,3.93,0,0,1,53,41.11Z"/><path class="cls-2" d="M52.62,40.78a8.38,8.38,0,0,0,.51-.76A3.34,3.34,0,0,1,52.62,40.78Z"/><path class="cls-2" d="M53,41.11a7.92,7.92,0,0,1-1,1h-.1a1.62,1.62,0,0,1-.58-.11,6.26,6.26,0,0,0,.49-.41h.09A1.51,1.51,0,0,0,53,41.11Z"/><path class="cls-2" d="M52,42.14a2,2,0,0,0,1.3-.65,6.42,6.42,0,0,1-5,2.58,6.93,6.93,0,0,1-6.25-4.81h.54a6.38,6.38,0,0,0,5.71,4.3A5.68,5.68,0,0,0,52,42.14Z"/><path class="cls-2" d="M52.62,40.78a6.35,6.35,0,0,1-.78.85c-.79-.06-1.49-.93-1.93-2.25h.54c.4,1.08.95,1.76,1.48,1.76A1,1,0,0,0,52.62,40.78Z"/><path class="cls-2" d="M52.52,30.13a1.71,1.71,0,0,0-.59-.11l-.23,0a5.14,5.14,0,0,0-3.37-1.31c-3.23,0-5.87,3.22-5.87,7.17a8.47,8.47,0,0,0,.7,3.38h-.54A8.84,8.84,0,0,1,42,35.9c0-4.23,2.86-7.67,6.37-7.67A5.76,5.76,0,0,1,52.52,30.13Z"/><path class="cls-2" d="M52.24,30.57a1.12,1.12,0,0,0-.31-.05c-1.39,0-2.52,2.49-2.52,5.56a10.51,10.51,0,0,0,.5,3.3h-.54a11.26,11.26,0,0,1-.46-3.29c0-3.3,1.19-5.82,2.79-6A5.39,5.39,0,0,1,52.24,30.57Z"/><path class="cls-1" d="M51.84,41.63a6.26,6.26,0,0,1-.49.41,3.87,3.87,0,0,1-2-2.67h.54C50.35,40.7,51.05,41.57,51.84,41.63Z"/><path class="cls-1" d="M51.7,30c-1.6.22-2.79,2.74-2.79,6a11.26,11.26,0,0,0,.46,3.29l-6.21-.09a8.47,8.47,0,0,1-.7-3.38c0-3.95,2.64-7.17,5.87-7.17A5.14,5.14,0,0,1,51.7,30Z"/><path class="cls-2" d="M49.37,39.37a3.87,3.87,0,0,0,2,2.67,5.05,5.05,0,0,1-3,1,5.85,5.85,0,0,1-5.17-3.79Z"/><path class="cls-1" d="M48.33,44.07l0,1.18-2,0,0,2.07A2.33,2.33,0,0,1,46,48.36a28,28,0,0,1-4.6,1.08c-.44.07-.87.1-1.3.15a2.58,2.58,0,0,1-.49-.32,2.53,2.53,0,0,1-1.12-2.1l.08-8,3.47,0A6.93,6.93,0,0,0,48.33,44.07Z"/><path class="cls-1" d="M46.21,48.3V51a19.36,19.36,0,0,1-2.57,1c-.93.29-1.88.54-2.85.74a29,29,0,0,1-2.94.45,26.1,26.1,0,0,1-2.86.16,13.94,13.94,0,0,1-6.14-1.23,10.63,10.63,0,0,1-4.1-3.43,14.9,14.9,0,0,1-2.3-5.32,30.5,30.5,0,0,1-.72-6.89,19.37,19.37,0,0,1,.7-5.45,15.23,15.23,0,0,1,1.91-4.21,13.37,13.37,0,0,1,2.81-3.07,15.51,15.51,0,0,1,3.37-2.05,15.92,15.92,0,0,1,3.63-1.14,18.93,18.93,0,0,1,3.61-.35c.73,0,1.49,0,2.3.07s1.59.11,2.35.19,1.47.17,2.12.28,1.19.2,1.61.3L45,25.64a17.33,17.33,0,0,0-1.79-.44c-.77-.15-1.6-.29-2.48-.44s-1.74-.25-2.59-.35A21.07,21.07,0,0,0,36,24.27c-.63,0-1.2,0-1.69.06a6.82,6.82,0,0,0-1.35.21,5,5,0,0,0-1.15.44,6.8,6.8,0,0,0-1.11.7,5.75,5.75,0,0,0-1.95,3.86,41.12,41.12,0,0,0-.5,7.08q0,6.52,1.92,9.87a6.62,6.62,0,0,0,6.21,3.35,32.63,32.63,0,0,0,3.75-.25,4.67,4.67,0,0,0,2.25.59,4.45,4.45,0,0,0,2.76-.82,3,3,0,0,0,.89-1Z"/><path class="cls-2" d="M45,25.64l1,2.59a8.25,8.25,0,0,0-4.51,7.67,9.46,9.46,0,0,0,.62,3.36l-3.47,0-.08,8a2.53,2.53,0,0,0,1.12,2.1,2.58,2.58,0,0,0,.49.32,32.63,32.63,0,0,1-3.75.25,6.62,6.62,0,0,1-6.21-3.35q-1.92-3.35-1.92-9.87a41.12,41.12,0,0,1,.5-7.08,5.75,5.75,0,0,1,1.95-3.86,6.8,6.8,0,0,1,1.11-.7A5,5,0,0,1,33,24.54a6.82,6.82,0,0,1,1.35-.21c.49,0,1.06-.06,1.69-.06a21.07,21.07,0,0,1,2.12.14c.85.1,1.72.21,2.59.35s1.71.29,2.48.44A17.33,17.33,0,0,1,45,25.64Z"/><path class="cls-2" d="M46,48.36a3,3,0,0,1-.89,1,4.45,4.45,0,0,1-2.76.82,4.67,4.67,0,0,1-2.25-.59c.43-.05.86-.08,1.3-.15A28,28,0,0,0,46,48.36Z"/></svg>