<?xml version="1.0" standalone="no"?>
<!DOCTYPE svg PUBLIC "-//W3C//DTD SVG 20010904//EN"
 "http://www.w3.org/TR/2001/REC-SVG-20010904/DTD/svg10.dtd">
<svg version="1.0" xmlns="http://www.w3.org/2000/svg"
 width="1183.000000pt" height="1183.000000pt" viewBox="0 0 1183.000000 1183.000000"
 preserveAspectRatio="xMidYMid meet">
<metadata>
Created by potrace 1.11, written by Peter Selinger 2001-2013
</metadata>
<g transform="translate(0.000000,1183.000000) scale(0.100000,-0.100000)"
fill="#000000" stroke="none">
<path d="M1240 7015 l0 -2575 2581 -2 2582 -3 -3 -105 c-1 -58 -3 -211 -5
-340 -2 -129 -6 -453 -10 -720 -17 -1168 -18 -1298 -10 -1335 8 -40 52 -114
84 -143 48 -44 128 -91 192 -113 83 -28 237 -35 328 -13 154 36 286 147 315
266 6 25 9 195 21 1028 16 1194 20 1452 24 1473 0 4 730 7 1621 7 l1620 0 0
2575 0 2575 -4670 0 -4670 0 0 -2575z m9330 0 l0 -2565 -1618 0 -1617 0 2 72
c1 40 4 287 7 548 4 261 9 639 12 840 4 201 7 403 8 450 l1 85 225 -2 c124 -1
332 -3 462 -5 l237 -2 3 -166 c3 -184 11 -211 77 -283 131 -143 377 -198 578
-131 119 40 227 133 258 222 16 47 17 81 29 865 l3 177 -26 0 c-197 2 -246 7
-242 20 43 157 62 246 64 296 1 34 5 60 9 58 4 -3 6 5 5 16 -1 11 -6 20 -12
20 -5 0 -3 5 5 10 10 6 11 10 3 10 -7 0 -13 5 -13 11 0 5 5 7 10 4 6 -4 10 5
10 19 0 14 -6 26 -12 27 -10 0 -10 2 0 6 6 2 12 9 12 14 0 6 -6 7 -12 3 -10
-6 -10 -4 0 8 8 10 9 19 3 22 -5 3 -7 16 -3 28 4 16 2 19 -9 13 -11 -6 -12 -5
-1 6 13 15 17 33 4 25 -5 -3 -6 9 -4 26 3 21 1 29 -7 24 -6 -4 -11 -2 -11 3 0
6 5 11 10 11 7 0 7 6 0 19 -5 11 -10 29 -10 41 0 12 -4 19 -9 16 -5 -4 -7 2
-4 12 8 32 -128 304 -144 288 -3 -3 -18 3 -32 13 -132 95 -288 -42 -356 -313
-52 -209 -48 -490 10 -682 8 -27 15 -52 15 -56 0 -4 -105 -5 -232 -3 -128 2
-321 5 -429 6 l-195 1 -17 39 c-10 22 -29 83 -43 137 -30 115 -40 328 -20 425
7 31 9 57 5 57 -21 0 -35 -235 -20 -355 11 -80 47 -220 75 -286 6 -14 -12 -16
-176 -13 -265 5 -849 13 -949 14 l-86 0 18 68 c31 112 47 226 48 343 2 88 -1
109 -11 103 -10 -5 -10 -4 -2 5 15 17 -6 133 -46 252 -83 248 -272 448 -495
524 -69 23 -125 30 -230 29 -244 -4 -488 -173 -617 -429 -36 -70 -84 -211 -91
-265 -5 -43 -5 -43 4 -10 71 249 131 363 253 485 214 213 491 269 749 150 58
-26 171 -106 210 -149 45 -48 77 -86 74 -86 -1 0 -20 9 -42 20 -70 36 -133 20
-201 -49 -57 -58 -126 -219 -148 -346 -32 -184 -23 -441 20 -585 7 -24 11 -46
9 -48 -4 -4 -44 -4 -535 4 -179 3 -328 8 -331 12 -6 7 -41 122 -52 172 -14 62
-20 134 -20 240 0 80 -2 100 -7 65 -16 -122 7 -312 54 -442 l15 -43 -220 3
-219 3 -1 -35 c0 -20 -2 -182 -5 -361 -3 -179 -6 -379 -7 -445 -5 -199 20
-264 132 -351 33 -25 39 -34 25 -35 -10 0 -28 -2 -39 -4 -54 -11 -238 -20
-390 -19 -143 1 -183 4 -255 24 -275 73 -450 240 -566 541 -37 96 -89 286 -98
359 -3 25 -7 54 -10 65 -38 191 -50 759 -22 1050 2 17 7 66 10 109 4 43 9 86
11 95 1 9 6 39 9 66 23 169 76 332 141 429 71 108 231 209 391 247 73 18 122
22 274 23 209 1 298 -6 525 -40 55 -8 118 -17 140 -20 22 -3 47 -8 55 -10 8
-3 35 -8 59 -11 24 -3 111 -20 195 -38 83 -19 152 -33 153 -32 1 1 31 121 67
266 66 265 67 278 31 282 -5 0 -17 2 -25 4 -14 3 -178 29 -250 39 -19 3 -62 8
-95 12 -33 3 -71 8 -85 10 -64 11 -264 19 -460 19 -226 0 -350 -9 -450 -31
-14 -3 -36 -8 -50 -10 -65 -12 -224 -59 -305 -91 -381 -149 -672 -389 -866
-713 -25 -41 -53 -91 -62 -111 -35 -76 -78 -174 -79 -179 -1 -9 -6 -25 -21
-70 -31 -91 -62 -222 -73 -305 -3 -22 -7 -51 -10 -65 -24 -142 -24 -606 1
-775 2 -16 7 -52 10 -80 3 -27 8 -59 10 -70 3 -11 7 -36 9 -55 25 -177 102
-433 173 -574 146 -293 328 -483 590 -617 138 -70 249 -104 473 -145 57 -10
478 -13 560 -4 41 5 95 11 120 14 277 33 566 105 801 197 l129 52 0 149 c0
106 4 157 14 176 20 41 25 84 27 227 l1 131 116 -3 c65 -1 268 -4 452 -7 184
-3 341 -6 347 -6 14 0 15 106 -12 -1760 -2 -129 -4 -238 -4 -242 -1 -5 -1160
-8 -2576 -8 l-2575 0 0 2565 0 2565 4660 0 4660 0 0 -2565z"/>
<path d="M8156 8473 c-237 -50 -442 -237 -546 -497 -39 -96 -60 -166 -52 -166
4 0 18 35 30 78 87 286 292 501 543 568 230 61 479 -20 657 -212 34 -36 62
-62 62 -57 0 5 -31 41 -68 79 -68 71 -152 131 -228 165 -114 51 -277 68 -398
42z"/>
<path d="M4960 7730 c0 -5 5 -10 10 -10 6 0 10 5 10 10 0 6 -4 10 -10 10 -5 0
-10 -4 -10 -10z"/>
</g>
</svg>
